<mxfile host="app.diagrams.net" modified="2023-12-27T15:01:07.677Z" agent="Mozilla/5.0 (Windows NT 10.0; Win64; x64) AppleWebKit/537.36 (KHTML, like Gecko) Chrome/120.0.0.0 Safari/537.36" etag="rO_n9gv9UQtoLtoZ1ElO" version="22.1.12" type="github">
  <diagram name="Page-1" id="cG97J3juUVaJRcpxh6kW">
    <mxGraphModel dx="2438" dy="1924" grid="1" gridSize="10" guides="1" tooltips="1" connect="1" arrows="1" fold="1" page="1" pageScale="1" pageWidth="850" pageHeight="1100" math="0" shadow="0">
      <root>
        <mxCell id="0" />
        <mxCell id="1" parent="0" />
        <mxCell id="H6j_OzM-90c1rT_r2HdO-2" value="" style="rounded=0;whiteSpace=wrap;html=1;" parent="1" vertex="1">
          <mxGeometry x="80" y="60" width="240" height="630" as="geometry" />
        </mxCell>
        <mxCell id="H6j_OzM-90c1rT_r2HdO-3" value="" style="outlineConnect=0;dashed=0;verticalLabelPosition=bottom;verticalAlign=top;align=center;html=1;shape=mxgraph.aws3.virtual_private_cloud;fillColor=#F58534;gradientColor=none;" parent="1" vertex="1">
          <mxGeometry x="90" y="70" width="79.5" height="54" as="geometry" />
        </mxCell>
        <mxCell id="H6j_OzM-90c1rT_r2HdO-4" value="" style="sketch=0;points=[[0,0,0],[0.25,0,0],[0.5,0,0],[0.75,0,0],[1,0,0],[0,1,0],[0.25,1,0],[0.5,1,0],[0.75,1,0],[1,1,0],[0,0.25,0],[0,0.5,0],[0,0.75,0],[1,0.25,0],[1,0.5,0],[1,0.75,0]];outlineConnect=0;fontColor=#232F3E;fillColor=#ED7100;strokeColor=#ffffff;dashed=0;verticalLabelPosition=bottom;verticalAlign=top;align=center;html=1;fontSize=12;fontStyle=0;aspect=fixed;shape=mxgraph.aws4.resourceIcon;resIcon=mxgraph.aws4.ec2;" parent="1" vertex="1">
          <mxGeometry x="100" y="170" width="78" height="78" as="geometry" />
        </mxCell>
        <mxCell id="H6j_OzM-90c1rT_r2HdO-5" value="" style="sketch=0;points=[[0,0,0],[0.25,0,0],[0.5,0,0],[0.75,0,0],[1,0,0],[0,1,0],[0.25,1,0],[0.5,1,0],[0.75,1,0],[1,1,0],[0,0.25,0],[0,0.5,0],[0,0.75,0],[1,0.25,0],[1,0.5,0],[1,0.75,0]];outlineConnect=0;fontColor=#232F3E;fillColor=#7AA116;strokeColor=#ffffff;dashed=0;verticalLabelPosition=bottom;verticalAlign=top;align=center;html=1;fontSize=12;fontStyle=0;aspect=fixed;shape=mxgraph.aws4.resourceIcon;resIcon=mxgraph.aws4.elastic_block_store;" parent="1" vertex="1">
          <mxGeometry x="220" y="280" width="78" height="78" as="geometry" />
        </mxCell>
        <mxCell id="H6j_OzM-90c1rT_r2HdO-6" value="Amazon RDS" style="sketch=0;outlineConnect=0;fontColor=#232F3E;gradientColor=none;strokeColor=#ffffff;fillColor=#232F3E;dashed=0;verticalLabelPosition=middle;verticalAlign=bottom;align=center;html=1;whiteSpace=wrap;fontSize=10;fontStyle=1;spacing=3;shape=mxgraph.aws4.productIcon;prIcon=mxgraph.aws4.rds;" parent="1" vertex="1">
          <mxGeometry x="109" y="430" width="80" height="100" as="geometry" />
        </mxCell>
        <mxCell id="H6j_OzM-90c1rT_r2HdO-7" value="" style="sketch=0;points=[[0,0,0],[0.25,0,0],[0.5,0,0],[0.75,0,0],[1,0,0],[0,1,0],[0.25,1,0],[0.5,1,0],[0.75,1,0],[1,1,0],[0,0.25,0],[0,0.5,0],[0,0.75,0],[1,0.25,0],[1,0.5,0],[1,0.75,0]];outlineConnect=0;fontColor=#232F3E;fillColor=#8C4FFF;strokeColor=#ffffff;dashed=0;verticalLabelPosition=bottom;verticalAlign=top;align=center;html=1;fontSize=12;fontStyle=0;aspect=fixed;shape=mxgraph.aws4.resourceIcon;resIcon=mxgraph.aws4.client_vpn;" parent="1" vertex="1">
          <mxGeometry x="216.5" y="550" width="78" height="78" as="geometry" />
        </mxCell>
        <mxCell id="H6j_OzM-90c1rT_r2HdO-9" value="Amazon EC2" style="text;html=1;strokeColor=none;fillColor=none;align=center;verticalAlign=middle;whiteSpace=wrap;rounded=0;" parent="1" vertex="1">
          <mxGeometry x="109" y="250" width="60" height="30" as="geometry" />
        </mxCell>
        <mxCell id="H6j_OzM-90c1rT_r2HdO-10" value="Amazon Elastic Block Store (EBS)" style="text;html=1;strokeColor=none;fillColor=none;align=center;verticalAlign=middle;whiteSpace=wrap;rounded=0;" parent="1" vertex="1">
          <mxGeometry x="223.5" y="370" width="71" height="30" as="geometry" />
        </mxCell>
        <mxCell id="H6j_OzM-90c1rT_r2HdO-11" value="AWS VPN" style="text;html=1;strokeColor=none;fillColor=none;align=center;verticalAlign=middle;whiteSpace=wrap;rounded=0;" parent="1" vertex="1">
          <mxGeometry x="226" y="640" width="60" height="30" as="geometry" />
        </mxCell>
        <mxCell id="H6j_OzM-90c1rT_r2HdO-12" value="AWS" style="text;strokeColor=none;fillColor=none;html=1;fontSize=24;fontStyle=1;verticalAlign=middle;align=center;" parent="1" vertex="1">
          <mxGeometry x="670" y="60" width="100" height="40" as="geometry" />
        </mxCell>
        <mxCell id="H6j_OzM-90c1rT_r2HdO-13" value="" style="rounded=0;whiteSpace=wrap;html=1;" parent="1" vertex="1">
          <mxGeometry x="50" y="20" width="1570" height="910" as="geometry" />
        </mxCell>
        <mxCell id="H6j_OzM-90c1rT_r2HdO-14" value="" style="rounded=0;whiteSpace=wrap;html=1;" parent="1" vertex="1">
          <mxGeometry x="90" y="60" width="250" height="410" as="geometry" />
        </mxCell>
        <mxCell id="H6j_OzM-90c1rT_r2HdO-15" value="" style="outlineConnect=0;dashed=0;verticalLabelPosition=bottom;verticalAlign=top;align=center;html=1;shape=mxgraph.aws3.virtual_private_cloud;fillColor=#F58534;gradientColor=none;" parent="1" vertex="1">
          <mxGeometry x="100" y="80" width="79.5" height="54" as="geometry" />
        </mxCell>
        <mxCell id="H6j_OzM-90c1rT_r2HdO-16" value="" style="sketch=0;points=[[0,0,0],[0.25,0,0],[0.5,0,0],[0.75,0,0],[1,0,0],[0,1,0],[0.25,1,0],[0.5,1,0],[0.75,1,0],[1,1,0],[0,0.25,0],[0,0.5,0],[0,0.75,0],[1,0.25,0],[1,0.5,0],[1,0.75,0]];outlineConnect=0;fontColor=#232F3E;fillColor=#ED7100;strokeColor=#ffffff;dashed=0;verticalLabelPosition=bottom;verticalAlign=top;align=center;html=1;fontSize=12;fontStyle=0;aspect=fixed;shape=mxgraph.aws4.resourceIcon;resIcon=mxgraph.aws4.ec2;" parent="1" vertex="1">
          <mxGeometry x="110" y="180" width="78" height="78" as="geometry" />
        </mxCell>
        <mxCell id="H6j_OzM-90c1rT_r2HdO-21" value="Amazon EC2" style="text;html=1;strokeColor=none;fillColor=none;align=center;verticalAlign=middle;whiteSpace=wrap;rounded=0;" parent="1" vertex="1">
          <mxGeometry x="119" y="260" width="60" height="30" as="geometry" />
        </mxCell>
        <mxCell id="H6j_OzM-90c1rT_r2HdO-24" value="AWS" style="text;strokeColor=none;fillColor=none;html=1;fontSize=24;fontStyle=1;verticalAlign=middle;align=center;" parent="1" vertex="1">
          <mxGeometry x="1530" y="20" width="100" height="40" as="geometry" />
        </mxCell>
        <mxCell id="H6j_OzM-90c1rT_r2HdO-25" value="" style="sketch=0;points=[[0,0,0],[0.25,0,0],[0.5,0,0],[0.75,0,0],[1,0,0],[0,1,0],[0.25,1,0],[0.5,1,0],[0.75,1,0],[1,1,0],[0,0.25,0],[0,0.5,0],[0,0.75,0],[1,0.25,0],[1,0.5,0],[1,0.75,0]];outlineConnect=0;fontColor=#232F3E;fillColor=#ED7100;strokeColor=#ffffff;dashed=0;verticalLabelPosition=bottom;verticalAlign=top;align=center;html=1;fontSize=12;fontStyle=0;aspect=fixed;shape=mxgraph.aws4.resourceIcon;resIcon=mxgraph.aws4.ec2;" parent="1" vertex="1">
          <mxGeometry x="233.5" y="180" width="78" height="78" as="geometry" />
        </mxCell>
        <mxCell id="H6j_OzM-90c1rT_r2HdO-26" value="" style="sketch=0;points=[[0,0,0],[0.25,0,0],[0.5,0,0],[0.75,0,0],[1,0,0],[0,1,0],[0.25,1,0],[0.5,1,0],[0.75,1,0],[1,1,0],[0,0.25,0],[0,0.5,0],[0,0.75,0],[1,0.25,0],[1,0.5,0],[1,0.75,0]];outlineConnect=0;fontColor=#232F3E;fillColor=#ED7100;strokeColor=#ffffff;dashed=0;verticalLabelPosition=bottom;verticalAlign=top;align=center;html=1;fontSize=12;fontStyle=0;aspect=fixed;shape=mxgraph.aws4.resourceIcon;resIcon=mxgraph.aws4.ec2;" parent="1" vertex="1">
          <mxGeometry x="169.5" y="320" width="78" height="78" as="geometry" />
        </mxCell>
        <mxCell id="H6j_OzM-90c1rT_r2HdO-28" value="Amazon EC2" style="text;html=1;strokeColor=none;fillColor=none;align=center;verticalAlign=middle;whiteSpace=wrap;rounded=0;" parent="1" vertex="1">
          <mxGeometry x="247.5" y="260" width="60" height="30" as="geometry" />
        </mxCell>
        <mxCell id="H6j_OzM-90c1rT_r2HdO-30" value="Amazon EC2" style="text;html=1;strokeColor=none;fillColor=none;align=center;verticalAlign=middle;whiteSpace=wrap;rounded=0;" parent="1" vertex="1">
          <mxGeometry x="180" y="410" width="60" height="30" as="geometry" />
        </mxCell>
        <mxCell id="H6j_OzM-90c1rT_r2HdO-31" value="" style="rounded=0;whiteSpace=wrap;html=1;" parent="1" vertex="1">
          <mxGeometry x="1220" y="60" width="340" height="410" as="geometry" />
        </mxCell>
        <mxCell id="H6j_OzM-90c1rT_r2HdO-32" value="" style="outlineConnect=0;dashed=0;verticalLabelPosition=bottom;verticalAlign=top;align=center;html=1;shape=mxgraph.aws3.virtual_private_cloud;fillColor=#F58534;gradientColor=none;" parent="1" vertex="1">
          <mxGeometry x="1230" y="80" width="79.5" height="54" as="geometry" />
        </mxCell>
        <mxCell id="H6j_OzM-90c1rT_r2HdO-33" value="" style="sketch=0;points=[[0,0,0],[0.25,0,0],[0.5,0,0],[0.75,0,0],[1,0,0],[0,1,0],[0.25,1,0],[0.5,1,0],[0.75,1,0],[1,1,0],[0,0.25,0],[0,0.5,0],[0,0.75,0],[1,0.25,0],[1,0.5,0],[1,0.75,0]];outlineConnect=0;fontColor=#232F3E;fillColor=#ED7100;strokeColor=#ffffff;dashed=0;verticalLabelPosition=bottom;verticalAlign=top;align=center;html=1;fontSize=12;fontStyle=0;aspect=fixed;shape=mxgraph.aws4.resourceIcon;resIcon=mxgraph.aws4.ec2;" parent="1" vertex="1">
          <mxGeometry x="1320" y="180" width="78" height="78" as="geometry" />
        </mxCell>
        <mxCell id="H6j_OzM-90c1rT_r2HdO-34" value="Amazon EC2" style="text;html=1;strokeColor=none;fillColor=none;align=center;verticalAlign=middle;whiteSpace=wrap;rounded=0;" parent="1" vertex="1">
          <mxGeometry x="1329" y="260" width="60" height="30" as="geometry" />
        </mxCell>
        <mxCell id="H6j_OzM-90c1rT_r2HdO-35" value="" style="sketch=0;points=[[0,0,0],[0.25,0,0],[0.5,0,0],[0.75,0,0],[1,0,0],[0,1,0],[0.25,1,0],[0.5,1,0],[0.75,1,0],[1,1,0],[0,0.25,0],[0,0.5,0],[0,0.75,0],[1,0.25,0],[1,0.5,0],[1,0.75,0]];outlineConnect=0;fontColor=#232F3E;fillColor=#ED7100;strokeColor=#ffffff;dashed=0;verticalLabelPosition=bottom;verticalAlign=top;align=center;html=1;fontSize=12;fontStyle=0;aspect=fixed;shape=mxgraph.aws4.resourceIcon;resIcon=mxgraph.aws4.ec2;" parent="1" vertex="1">
          <mxGeometry x="1443.5" y="180" width="78" height="78" as="geometry" />
        </mxCell>
        <mxCell id="H6j_OzM-90c1rT_r2HdO-36" value="" style="sketch=0;points=[[0,0,0],[0.25,0,0],[0.5,0,0],[0.75,0,0],[1,0,0],[0,1,0],[0.25,1,0],[0.5,1,0],[0.75,1,0],[1,1,0],[0,0.25,0],[0,0.5,0],[0,0.75,0],[1,0.25,0],[1,0.5,0],[1,0.75,0]];outlineConnect=0;fontColor=#232F3E;fillColor=#ED7100;strokeColor=#ffffff;dashed=0;verticalLabelPosition=bottom;verticalAlign=top;align=center;html=1;fontSize=12;fontStyle=0;aspect=fixed;shape=mxgraph.aws4.resourceIcon;resIcon=mxgraph.aws4.ec2;" parent="1" vertex="1">
          <mxGeometry x="1379.5" y="320" width="78" height="78" as="geometry" />
        </mxCell>
        <mxCell id="H6j_OzM-90c1rT_r2HdO-37" value="Amazon EC2" style="text;html=1;strokeColor=none;fillColor=none;align=center;verticalAlign=middle;whiteSpace=wrap;rounded=0;" parent="1" vertex="1">
          <mxGeometry x="1457.5" y="260" width="60" height="30" as="geometry" />
        </mxCell>
        <mxCell id="H6j_OzM-90c1rT_r2HdO-38" value="Amazon EC2" style="text;html=1;strokeColor=none;fillColor=none;align=center;verticalAlign=middle;whiteSpace=wrap;rounded=0;" parent="1" vertex="1">
          <mxGeometry x="1390" y="410" width="60" height="30" as="geometry" />
        </mxCell>
        <mxCell id="H6j_OzM-90c1rT_r2HdO-39" value="" style="rounded=0;whiteSpace=wrap;html=1;" parent="1" vertex="1">
          <mxGeometry x="687.5" y="60" width="250" height="410" as="geometry" />
        </mxCell>
        <mxCell id="H6j_OzM-90c1rT_r2HdO-40" value="" style="outlineConnect=0;dashed=0;verticalLabelPosition=bottom;verticalAlign=top;align=center;html=1;shape=mxgraph.aws3.virtual_private_cloud;fillColor=#F58534;gradientColor=none;" parent="1" vertex="1">
          <mxGeometry x="697.5" y="80" width="79.5" height="54" as="geometry" />
        </mxCell>
        <mxCell id="H6j_OzM-90c1rT_r2HdO-47" value="Amazon RDS" style="sketch=0;outlineConnect=0;fontColor=#232F3E;gradientColor=none;strokeColor=#ffffff;fillColor=#232F3E;dashed=0;verticalLabelPosition=middle;verticalAlign=bottom;align=center;html=1;whiteSpace=wrap;fontSize=10;fontStyle=1;spacing=3;shape=mxgraph.aws4.productIcon;prIcon=mxgraph.aws4.rds;" parent="1" vertex="1">
          <mxGeometry x="767.5" y="169" width="80" height="100" as="geometry" />
        </mxCell>
        <mxCell id="H6j_OzM-90c1rT_r2HdO-48" value="Amazon RDS" style="sketch=0;outlineConnect=0;fontColor=#232F3E;gradientColor=none;strokeColor=#ffffff;fillColor=#232F3E;dashed=0;verticalLabelPosition=middle;verticalAlign=bottom;align=center;html=1;whiteSpace=wrap;fontSize=10;fontStyle=1;spacing=3;shape=mxgraph.aws4.productIcon;prIcon=mxgraph.aws4.rds;" parent="1" vertex="1">
          <mxGeometry x="767.5" y="310" width="80" height="100" as="geometry" />
        </mxCell>
        <mxCell id="H6j_OzM-90c1rT_r2HdO-49" value="" style="outlineConnect=0;dashed=0;verticalLabelPosition=bottom;verticalAlign=top;align=center;html=1;shape=mxgraph.aws3.route_table;fillColor=#F58536;gradientColor=none;" parent="1" vertex="1">
          <mxGeometry x="775" y="804" width="75" height="69" as="geometry" />
        </mxCell>
        <mxCell id="H6j_OzM-90c1rT_r2HdO-50" value="" style="outlineConnect=0;dashed=0;verticalLabelPosition=bottom;verticalAlign=top;align=center;html=1;shape=mxgraph.aws3.route_table;fillColor=#F58536;gradientColor=none;" parent="1" vertex="1">
          <mxGeometry x="775" y="700" width="75" height="69" as="geometry" />
        </mxCell>
        <mxCell id="H6j_OzM-90c1rT_r2HdO-51" value="Route Table" style="text;html=1;strokeColor=none;fillColor=none;align=center;verticalAlign=middle;whiteSpace=wrap;rounded=0;" parent="1" vertex="1">
          <mxGeometry x="775" y="770" width="75" height="29" as="geometry" />
        </mxCell>
        <mxCell id="H6j_OzM-90c1rT_r2HdO-52" value="Route Table" style="text;html=1;strokeColor=none;fillColor=none;align=center;verticalAlign=middle;whiteSpace=wrap;rounded=0;" parent="1" vertex="1">
          <mxGeometry x="775" y="873" width="75" height="30" as="geometry" />
        </mxCell>
        <mxCell id="H6j_OzM-90c1rT_r2HdO-53" value="" style="endArrow=none;html=1;rounded=0;entryX=0.5;entryY=1;entryDx=0;entryDy=0;exitX=0.5;exitY=0;exitDx=0;exitDy=0;exitPerimeter=0;" parent="1" source="H6j_OzM-90c1rT_r2HdO-50" target="H6j_OzM-90c1rT_r2HdO-31" edge="1">
          <mxGeometry width="50" height="50" relative="1" as="geometry">
            <mxPoint x="650" y="570" as="sourcePoint" />
            <mxPoint x="700" y="520" as="targetPoint" />
          </mxGeometry>
        </mxCell>
        <mxCell id="H6j_OzM-90c1rT_r2HdO-54" value="" style="endArrow=none;html=1;rounded=0;entryX=0.5;entryY=1;entryDx=0;entryDy=0;exitX=0.5;exitY=0;exitDx=0;exitDy=0;exitPerimeter=0;" parent="1" source="H6j_OzM-90c1rT_r2HdO-50" target="H6j_OzM-90c1rT_r2HdO-39" edge="1">
          <mxGeometry width="50" height="50" relative="1" as="geometry">
            <mxPoint x="550" y="570" as="sourcePoint" />
            <mxPoint x="600" y="520" as="targetPoint" />
          </mxGeometry>
        </mxCell>
        <mxCell id="H6j_OzM-90c1rT_r2HdO-56" value="" style="endArrow=none;html=1;rounded=0;entryX=0.5;entryY=1;entryDx=0;entryDy=0;exitX=0.5;exitY=0;exitDx=0;exitDy=0;exitPerimeter=0;" parent="1" source="H6j_OzM-90c1rT_r2HdO-50" target="H6j_OzM-90c1rT_r2HdO-14" edge="1">
          <mxGeometry width="50" height="50" relative="1" as="geometry">
            <mxPoint x="550" y="570" as="sourcePoint" />
            <mxPoint x="600" y="520" as="targetPoint" />
          </mxGeometry>
        </mxCell>
        <mxCell id="H6j_OzM-90c1rT_r2HdO-57" value="Network Access Control Lists (NACLs)" style="text;html=1;strokeColor=none;fillColor=none;align=center;verticalAlign=middle;whiteSpace=wrap;rounded=0;" parent="1" vertex="1">
          <mxGeometry x="820" y="620" width="60" height="30" as="geometry" />
        </mxCell>
        <mxCell id="H6j_OzM-90c1rT_r2HdO-67" value="Requests on TCP port 3306" style="shape=note;whiteSpace=wrap;html=1;backgroundOutline=1;darkOpacity=0.05;" parent="1" vertex="1">
          <mxGeometry x="330" y="258" width="80" height="100" as="geometry" />
        </mxCell>
        <mxCell id="H6j_OzM-90c1rT_r2HdO-68" value="" style="endArrow=none;html=1;rounded=0;exitX=1;exitY=0.75;exitDx=0;exitDy=0;entryX=0;entryY=0.75;entryDx=0;entryDy=0;" parent="1" source="H6j_OzM-90c1rT_r2HdO-14" target="H6j_OzM-90c1rT_r2HdO-39" edge="1">
          <mxGeometry width="50" height="50" relative="1" as="geometry">
            <mxPoint x="640" y="480" as="sourcePoint" />
            <mxPoint x="680" y="350" as="targetPoint" />
          </mxGeometry>
        </mxCell>
        <mxCell id="H6j_OzM-90c1rT_r2HdO-71" value="" style="endArrow=none;html=1;rounded=0;exitX=1;exitY=0.75;exitDx=0;exitDy=0;entryX=0;entryY=0.75;entryDx=0;entryDy=0;" parent="1" source="H6j_OzM-90c1rT_r2HdO-39" target="H6j_OzM-90c1rT_r2HdO-31" edge="1">
          <mxGeometry width="50" height="50" relative="1" as="geometry">
            <mxPoint x="350" y="378" as="sourcePoint" />
            <mxPoint x="698" y="378" as="targetPoint" />
          </mxGeometry>
        </mxCell>
        <mxCell id="H6j_OzM-90c1rT_r2HdO-72" value="Requests on TCP port 3306" style="shape=note;whiteSpace=wrap;html=1;backgroundOutline=1;darkOpacity=0.05;" parent="1" vertex="1">
          <mxGeometry x="1180" y="250" width="80" height="100" as="geometry" />
        </mxCell>
        <mxCell id="H6j_OzM-90c1rT_r2HdO-73" value="Security Groups" style="text;strokeColor=none;fillColor=none;html=1;fontSize=24;fontStyle=1;verticalAlign=middle;align=center;" parent="1" vertex="1">
          <mxGeometry x="880" y="-40" width="100" height="40" as="geometry" />
        </mxCell>
        <mxCell id="H6j_OzM-90c1rT_r2HdO-78" value="10.0.1.0/24" style="text;html=1;strokeColor=none;fillColor=none;align=center;verticalAlign=middle;whiteSpace=wrap;rounded=0;" parent="1" vertex="1">
          <mxGeometry x="173.5" y="25" width="60" height="30" as="geometry" />
        </mxCell>
        <mxCell id="H6j_OzM-90c1rT_r2HdO-79" value="10.0.2.0/24" style="text;html=1;strokeColor=none;fillColor=none;align=center;verticalAlign=middle;whiteSpace=wrap;rounded=0;" parent="1" vertex="1">
          <mxGeometry x="805" y="25" width="60" height="30" as="geometry" />
        </mxCell>
        <mxCell id="H6j_OzM-90c1rT_r2HdO-81" value="10.0.3.0/24" style="text;html=1;strokeColor=none;fillColor=none;align=center;verticalAlign=middle;whiteSpace=wrap;rounded=0;" parent="1" vertex="1">
          <mxGeometry x="1360" y="25" width="60" height="30" as="geometry" />
        </mxCell>
        <mxCell id="exJhJPMc5LpBpP9PobNV-1" value="&lt;b&gt;Security Group&lt;/b&gt;:A named set of allowed inbound network connections for an instance. (Security groups in Amazon VPC also include support for outbound connections.) Each security group consists of a list of protocols, ports, and IP address ranges. A security group can apply to multiple instances, and multiple groups can regulate a single instance." style="shape=note;whiteSpace=wrap;html=1;backgroundOutline=1;darkOpacity=0.05;align=left;" vertex="1" parent="1">
          <mxGeometry x="-200" y="20" width="220" height="210" as="geometry" />
        </mxCell>
        <mxCell id="exJhJPMc5LpBpP9PobNV-2" value="&lt;b&gt;Route Table&lt;/b&gt;:&amp;nbsp;A set of routing rules that controls the traffic leaving any subnet that&#39;s associated with the route table. You can associate multiple subnets with a single route table, but a subnet can be associated with only one route table at a time." style="shape=note;whiteSpace=wrap;html=1;backgroundOutline=1;darkOpacity=0.05;align=left;" vertex="1" parent="1">
          <mxGeometry x="930" y="699.5" width="190" height="170" as="geometry" />
        </mxCell>
      </root>
    </mxGraphModel>
  </diagram>
</mxfile>
